<svg width="230" height="50" viewBox="0 0 230 50" fill="none" xmlns="http://www.w3.org/2000/svg">
<rect y="4.38086" width="27.4507" height="6.71827" rx="1" fill="black"/>
<rect x="8.0166" y="13.1987" width="27.4507" height="6.71827" rx="1" fill="black"/>
<rect y="22.0161" width="27.4507" height="6.71827" rx="1" fill="black"/>
<rect x="8.0166" y="31.0439" width="27.4507" height="6.71827" rx="1" fill="black"/>
<rect y="40.2817" width="27.4507" height="6.71827" rx="1" fill="black"/>
<path d="M70.032 25.448C74.896 25.448 77.328 26.9947 77.328 30.088C77.328 31.5387 76.9973 32.776 76.336 33.8C75.6747 34.8027 74.4907 35.592 72.784 36.168C71.0773 36.7227 68.7093 37 65.68 37H51.28C51.4507 32.8613 51.536 28.9893 51.536 25.384C51.536 21.7787 51.4507 17.9067 51.28 13.768H58.8V13.8H65.616C68.2613 13.8 70.3413 14.024 71.856 14.472C73.392 14.8987 74.4693 15.528 75.088 16.36C75.728 17.192 76.048 18.248 76.048 19.528C76.048 20.8293 75.5893 21.992 74.672 23.016C73.776 24.0187 72.2293 24.8293 70.032 25.448ZM58.8 19.624V22.6H64.944C66.2667 22.6 67.184 22.4827 67.696 22.248C68.2293 22.0133 68.496 21.5867 68.496 20.968C68.496 20.4773 68.2187 20.136 67.664 19.944C67.1307 19.7307 66.224 19.624 64.944 19.624H58.8ZM64.944 31.144C66.0533 31.144 66.896 31.1013 67.472 31.016C68.0693 30.9093 68.496 30.7387 68.752 30.504C69.008 30.248 69.136 29.9067 69.136 29.48C69.136 28.9253 68.8267 28.5307 68.208 28.296C67.6107 28.04 66.5227 27.912 64.944 27.912H58.8V31.144H64.944ZM94.1138 37.32C89.2284 37.32 85.6338 36.264 83.3298 34.152C81.0258 32.0187 79.8738 29.032 79.8738 25.192C79.8738 21.3947 81.0151 18.4293 83.2977 16.296C85.6018 14.1627 89.2071 13.096 94.1138 13.096C99.0418 13.096 102.647 14.1627 104.93 16.296C107.234 18.4293 108.386 21.3947 108.386 25.192C108.386 29.0533 107.244 32.04 104.962 34.152C102.679 36.264 99.0631 37.32 94.1138 37.32ZM94.1138 30.792C96.4818 30.792 98.1884 30.344 99.2338 29.448C100.279 28.5307 100.802 27.112 100.802 25.192C100.802 23.3147 100.279 21.9173 99.2338 21C98.1884 20.0827 96.4818 19.624 94.1138 19.624C91.7671 19.624 90.0711 20.0827 89.0258 21C87.9804 21.9173 87.4578 23.3147 87.4578 25.192C87.4578 27.0907 87.9804 28.4987 89.0258 29.416C90.0711 30.3333 91.7671 30.792 94.1138 30.792ZM125.176 37.32C120.291 37.32 116.696 36.264 114.392 34.152C112.088 32.0187 110.936 29.032 110.936 25.192C110.936 21.3947 112.078 18.4293 114.36 16.296C116.664 14.1627 120.27 13.096 125.176 13.096C130.104 13.096 133.71 14.1627 135.992 16.296C138.296 18.4293 139.448 21.3947 139.448 25.192C139.448 29.0533 138.307 32.04 136.024 34.152C133.742 36.264 130.126 37.32 125.176 37.32ZM125.176 30.792C127.544 30.792 129.251 30.344 130.296 29.448C131.342 28.5307 131.864 27.112 131.864 25.192C131.864 23.3147 131.342 21.9173 130.296 21C129.251 20.0827 127.544 19.624 125.176 19.624C122.83 19.624 121.134 20.0827 120.088 21C119.043 21.9173 118.52 23.3147 118.52 25.192C118.52 27.0907 119.043 28.4987 120.088 29.416C121.134 30.3333 122.83 30.792 125.176 30.792ZM167.893 20.488C164.544 20.3813 161.29 20.3173 158.133 20.296V37H150.133V20.296C146.954 20.3173 143.712 20.3813 140.405 20.488V13.768H167.893V20.488ZM189.412 13.736H197.348V26.472C197.305 29.608 196.228 32.2 194.116 34.248C192.025 36.296 188.494 37.32 183.524 37.32C178.489 37.32 175.044 36.3493 173.188 34.408C171.332 32.4453 170.425 29.8747 170.468 26.696V13.736H178.404V26.184C178.404 27.1227 178.468 27.8907 178.595 28.488C178.745 29.064 179.193 29.608 179.94 30.12C180.708 30.632 181.934 30.888 183.62 30.888C185.454 30.888 186.798 30.632 187.652 30.12C188.505 29.5867 189.006 29 189.156 28.36C189.326 27.72 189.412 26.8987 189.412 25.896V13.736ZM214.433 13.8C218.678 13.8 221.633 14.5573 223.297 16.072C224.961 17.5653 225.793 19.6773 225.793 22.408C225.793 24.2853 225.462 25.8853 224.801 27.208C224.14 28.5093 222.977 29.5333 221.313 30.28C219.649 31.0053 217.356 31.368 214.433 31.368H207.777V37H199.905C200.076 32.8613 200.161 28.9893 200.161 25.384C200.161 21.7787 200.076 17.9067 199.905 13.768H207.777V13.8H214.433ZM212.193 25.192C213.964 25.192 215.286 25.128 216.161 25C217.057 24.8507 217.676 24.5947 218.017 24.232C218.38 23.8693 218.561 23.336 218.561 22.632C218.561 21.928 218.39 21.4053 218.049 21.064C217.729 20.7013 217.121 20.456 216.225 20.328C215.35 20.2 214.006 20.136 212.193 20.136H207.777V25.192H212.193Z" fill="black"/>
</svg>
